<mxfile host="app.diagrams.net" modified="2023-11-16T19:26:02.415Z" agent="Mozilla/5.0 (X11; Linux x86_64) AppleWebKit/537.36 (KHTML, like Gecko) Chrome/119.0.0.0 Safari/537.36" version="22.1.2" etag="SLuCDuKRiOcBEYVDaN2I" type="github">
  <diagram name="PÃ¡gina-1" id="kGPUvYLuCulY5MdBovLR">
    <mxGraphModel>
      <root>
        <mxCell id="0" />
        <mxCell id="1" parent="0" />
      </root>
    </mxGraphModel>
  </diagram>
</mxfile>
